<?xml version="1.0" encoding="UTF-8"?>
<svg id="Capa_2" data-name="Capa 2" xmlns="http://www.w3.org/2000/svg" viewBox="0 0 254.3 63.49">
  <defs>
    <style>
      .cls-1 {
        fill: #fff;
      }
    </style>
  </defs>
  <g id="Layer_1" data-name="Layer 1">
    <g>
      <path class="cls-1" d="M142.81,1.56c5.1,0,10.2-.02,15.3,0,2.51.01,4.93.54,7.16,1.74,2.47,1.32,4.1,3.28,4.46,6.16.32,2.59.42,5.17-.65,7.61-.36.83-.99,1.56-1.56,2.28-.46.58-.46,1.09-.04,1.68,2.62,3.76,3.75,8.07,4.54,12.5.11.61.18,1.23.3,1.84.14.71-.16,1.07-.86,1.07-2.72.01-5.44,0-8.16,0-.76,0-.97-.54-1.12-1.13-.65-2.52-1.24-5.07-1.98-7.56-.34-1.13-.92-2.22-1.52-3.25-.73-1.24-1.83-1.8-3.35-1.79-6.2.06-12.4.03-18.6.03-1.57,0-1.73.15-1.73,1.69,0,3.48,0,6.96,0,10.44,0,1.47-.11,1.56-1.61,1.57-2.34,0-4.69.01-7.03.02-1.28,0-1.45-.15-1.45-1.41,0-6.17,0-12.33.01-18.5,0-1.14.28-1.38,1.53-1.38,9.27,0,18.53.02,27.8.02,1.03,0,2.07.01,3.1-.06,1.7-.12,2.57-1.1,2.61-2.84.04-2-.68-2.93-2.5-3.12-.92-.09-1.86-.1-2.79-.1-9.34,0-18.67,0-28.01.02-1.61,0-1.77-.15-1.78-1.77,0-1.38.01-2.76.02-4.13.01-1.61.13-1.72,1.69-1.72,5.41,0,10.82,0,16.23,0,0,.03,0,.06,0,.09Z"/>
      <path class="cls-1" d="M106.13,36.47c-1.48,0-2.96,0-4.44,0-.68,0-1.13-.22-1.45-.9-.88-1.87-1.86-3.68-2.76-5.53-.33-.68-.83-.97-1.55-.97-5.16,0-10.33-.02-15.49.04-.46,0-1.11.44-1.34.86-1.03,1.86-1.9,3.81-2.92,5.68-.2.37-.76.76-1.17.77-3.06.06-6.13.05-9.19.02-.92,0-1.08-.34-.65-1.2,1.99-4,3.99-7.99,5.97-11.99,2.26-4.55,4.5-9.12,6.79-13.65.87-1.71,1.76-3.43,2.83-5.02,1.37-2.03,3.36-3.12,5.86-3.09,1.68.02,3.4-.06,5.04.24,2.44.45,4,2.23,5.1,4.33,1.85,3.53,3.59,7.12,5.37,10.68,1.87,3.75,3.74,7.5,5.62,11.25,1.23,2.46,2.49,4.9,3.72,7.35.38.75.2,1.08-.68,1.1-1.55.04-3.1,0-4.65,0,0,0,0,0,0,0ZM88.35,11.85c-.38.5-.64.74-.79,1.03-1.21,2.42-2.41,4.85-3.58,7.29-.41.85-.12,1.29.88,1.3,2.27.03,4.54.02,6.81,0,1.07-.01,1.3-.46.8-1.46-.54-1.07-1.05-2.16-1.6-3.23-.8-1.58-1.62-3.16-2.53-4.94Z"/>
      <path class="cls-1" d="M254.3,36.25c-.64.1-1.07.22-1.49.22-2.86.01-5.72-.03-8.58.02-.98.02-1.31-.6-1.65-1.28-.83-1.66-1.66-3.32-2.46-4.99-.38-.79-.92-1.2-1.85-1.2-4.82.04-9.65.08-14.47.03-1.33-.02-2.08.43-2.6,1.64-.71,1.64-1.58,3.21-2.34,4.82-.3.64-.73.95-1.44.96-3.03,0-6.06.04-9.1.03-.94,0-1.09-.37-.59-1.39.98-1.97,1.99-3.93,2.98-5.9,2.91-5.81,5.82-11.63,8.73-17.44.97-1.94,1.86-3.92,2.92-5.81,1.61-2.87,3.96-4.65,7.43-4.48,1.51.08,3.05,0,4.51.32,2.47.54,3.99,2.38,5.09,4.51,2.08,4.03,4.06,8.12,6.09,12.18,2.25,4.49,4.51,8.97,6.76,13.46.67,1.35,1.31,2.72,2.08,4.3ZM230.91,11.9c-.37.44-.66.69-.82,1-.58,1.09-1.13,2.2-1.68,3.31-.64,1.29-1.31,2.57-1.88,3.9-.41.94-.19,1.36.65,1.37,2.44.03,4.89.01,7.33,0,.78,0,1-.45.68-1.09-1.37-2.77-2.77-5.51-4.27-8.5Z"/>
      <path class="cls-1" d="M160.03,56.96c.03-.43.08-.87.08-1.3.01-2.31,0-4.62.01-6.93,0-1.34.18-1.51,1.48-1.53,1.14-.02,2.27-.02,3.41,0,1.21.02,1.51.28,1.51,1.44.02,4.48,0,8.96.01,13.44,0,.96-.46,1.39-1.4,1.38-1.72-.01-3.45.07-5.17-.06-.7-.05-1.51-.36-2.04-.82-3.6-3.15-7.15-6.36-10.7-9.57-2.68-2.42-5.33-4.89-8.05-7.27-.5-.44-1.28-.77-1.93-.77-6.89-.06-13.78-.04-20.67-.04-15.85,0-31.7,0-47.55,0-1.48,0-2.96.03-4.44-.01-.36-.01-.72-.26-1.07-.4.19-.3.34-.67.59-.9,1.03-.97,2.06-1.94,3.17-2.81.39-.3,1.01-.44,1.52-.44,14.68-.03,29.36-.03,44.04-.04,8.51,0,17.02.05,25.53-.04,1.76-.02,3.08.51,4.34,1.67,5.26,4.81,10.56,9.58,15.85,14.35.36.33.8.58,1.19.86.1-.07.19-.14.29-.2Z"/>
      <path class="cls-1" d="M190.64,40.47c.49-.06.99-.16,1.48-.16,8.99.01,17.99.04,26.98.05,2.65,0,5.31-.06,7.96,0,.62.02,1.36.3,1.83.71,2.47,2.14,4.89,4.34,7.3,6.55.66.6,1.2.66,1.87.04,2.45-2.26,4.92-4.52,7.42-6.73.36-.32.9-.56,1.37-.58,1.72-.08,3.44-.08,5.16-.06.34,0,.68.21,1.02.33-.19.34-.3.76-.58,1.01-3.31,3.01-6.65,6-9.98,8.99-1.31,1.18-1.33,1.41-.05,2.57,3.16,2.88,6.33,5.74,9.49,8.6.2.18.43.36.6.56.49.56.37,1.04-.34,1.06-1.93.04-3.86,0-5.78-.08-.39-.02-.81-.35-1.13-.64-2.37-2.1-4.72-4.23-7.08-6.34-.91-.81-1.23-.77-2.1.02-2.34,2.13-4.69,4.26-7.08,6.34-.41.36-1.02.65-1.56.68-1.61.1-3.23.08-4.85.06-.34,0-.68-.24-1.02-.37.18-.34.28-.76.55-1,2.72-2.49,5.46-4.95,8.2-7.42.66-.6,1.32-1.21,1.98-1.82.62-.57.71-1.16.05-1.75-2.91-2.63-5.81-5.28-8.75-7.87-.22-.19-.97-.17-1.13.03-1.38,1.68-3.19,1.7-5.15,1.68-6.86-.05-13.71,0-20.57.07-1.42.02-2.51-.39-3.47-1.44-.87-.96-1.86-1.79-2.8-2.68l.16-.41Z"/>
      <path class="cls-1" d="M41.21,38.24c.28-.17.61-.3.85-.53,1.83-1.75,2.95-3.96,3.9-6.25.8-1.93,1.34-3.99,2.86-5.55.12-.12.22-.26.34-.39,1.23-1.26,1.89-1.12,2.43.53.4,1.21.85,2.41,1.09,3.64.12.62.02,1.42-.3,1.96-.96,1.65-.36,3.14.29,4.62.33.75.8,1.43,1.21,2.15.55.96.32,1.64-.7,2.05-1.81.74-1.72.86-1.91,2.69-.11,1.09-.54,2.51-1.34,3.1-1.05.78-1.15,1.44-.98,2.55.21,1.36-.74,2.14-2.2,1.95-2.01-.26-4.02-.58-6.03-.82-3.14-.38-5.54.78-7.3,3.43-1.72,2.59-2.65,5.48-3.48,8.43-.14.49-.59,1.21-.94,1.24-.47.04-1.16-.39-1.44-.82-1.65-2.53-1.63-5.35-1.06-8.17.23-1.16.93-.19,1.68.04.17-.55.42-1.08.48-1.64.31-3.18,1.36-6.09,3.04-8.78.22-.35.48-.67.75-.99.41-.49.84-.75,1.4.07.33-.47.65-.83.85-1.24,1.35-2.8,3.48-4.93,5.92-6.77.27-.2.68-.21,1.02-.31.08.38.3.8.21,1.14-.21.81-.57,1.59-.86,2.38.08.09.17.18.25.26Z"/>
      <path class="cls-1" d="M34.86,13.98c3.26.15,6.08,1.08,8.74,2.69,1.42.86,3.12,1.22,4.6,1.99,1.23.64,2.39,1.47,3.44,2.37.77.66.46,1.46-.51,1.77-3.1.98-6.01,2.26-8.46,4.53-1.1,1.03-2.55,1.72-3.91,2.44-2.59,1.36-5.16,2.77-7.85,3.88-2.62,1.08-5.39,1.83-8.1,2.68-.93.29-1.78-.05-2.12-.99-.83-2.3-1.52-4.66-1.15-7.15.24-1.6.41-2.11,2.16-1.52.58.19,1.35-.06,2-.23,2.05-.54,4.1-3.4,3.83-5.44-.11-.83-.46-1.65-.78-2.44-.6-1.46-.43-2.1.92-2.77,2.31-1.16,4.78-1.71,7.18-1.8ZM28.99,30.56c1.11,0,2.08-.95,2.07-2.01-.01-1.2-.99-2.22-2.12-2.21-1.2,0-2.07.88-2.08,2.08,0,1.27.87,2.15,2.13,2.15Z"/>
      <path class="cls-1" d="M184.01,18.91c0-5.03,0-10.06,0-15.09,0-.41.02-.83.03-1.24.03-.69.35-1.08,1.09-1.08,2.62,0,5.24,0,7.85-.01.91,0,1.21.5,1.22,1.3.01,1.72.04,3.45.03,5.17-.03,8.99-.06,17.98-.1,26.98,0,1.43-.11,1.53-1.52,1.54-2.34.01-4.68.02-7.03.02-1.36,0-1.53-.19-1.53-1.57,0-5.34,0-10.68,0-16.02-.01,0-.03,0-.04,0Z"/>
      <path class="cls-1" d="M35.16,12.05c-2.69.05-5.25.57-7.67,1.77-1.65.82-2.24.62-3.25-.9-1.32-2-2.81-3.8-4.87-5.12-1.26-.81-1.24-1.61,0-2.48.95-.67,1.95-1.28,2.97-1.85.9-.5,1.77-.44,2.54.34.63.64,1.26,1.28,1.95,1.83.27.21.87.36,1.07.21.29-.22.51-.75.49-1.13-.02-.61-.27-1.2-.42-1.8-.3-1.19,0-2.04,1.18-2.21C31.8.33,34.48.05,37.14,0c1.41-.03,2.84.48,4.24.82,1.23.3,1.61.82,1.56,2.07-.03.71-.2,1.42-.31,2.13-.07.47-.23.97-.16,1.42.06.34.36.77.67.9.25.1.76-.09.98-.31.67-.69,1.24-1.47,1.87-2.2.89-1.02,1.56-1.2,2.57-.32,1.84,1.59,3.62,3.27,5.3,5.03.91.95.53,2.13-.72,2.51-2.11.64-4.01,1.65-5.69,3.05-.85.72-1.66.72-2.53.12-2.07-1.42-4.41-2.24-6.8-2.87-.95-.25-1.98-.2-2.97-.29Z"/>
      <path class="cls-1" d="M16.34,62.9c-2.14,0-4.28.06-6.41-.04-.61-.03-1.43-.34-1.73-.8-.48-.73.12-1.42.71-1.95,5.09-4.6,8.46-10.35,11.05-16.61.41-.98.68-2.06,1.27-2.92.47-.69,1.25-1.32,2.02-1.62,2.34-.9,4.82-1.47,7.12-2.45,3.12-1.34,6.14-2.9,9.17-4.44,1.19-.61,2.26-1.44,3.41-2.12.26-.15.64-.08.97-.11,0,.36.07.75-.05,1.07-.27.71-.76,1.02-1.62,1.15-1.11.16-2.31.55-3.21,1.21-1.97,1.44-3.84,3.03-5.14,5.17-.28.45-.71.89-1.17,1.14-2.47,1.37-3.58,3.75-4.59,6.17-.54,1.29-.81,2.69-1.28,4.02-.17.5-.43,1.15-.84,1.36-1.43.71-1.84,2.03-1.89,3.34-.07,1.97.04,3.98.36,5.93.3,1.85-.06,2.52-1.97,2.53-2.07.01-4.14,0-6.2,0Z"/>
      <path class="cls-1" d="M154.52,40.51c.38-.07.76-.21,1.15-.21,5.41,0,10.81.04,16.22,0,1.35-.01,2.03.93,2.85,1.65,1.69,1.46,3.29,3.03,4.96,4.51.65.57.93,1.23.93,2.08-.01,4.37.01,8.75,0,13.12,0,1.59-.23,1.79-1.8,1.8-1.03,0-2.07.01-3.1,0-1.25-.02-1.44-.18-1.45-1.44-.02-4.06-.05-8.13,0-12.19.01-.99-.27-1.74-1.05-2.32-.25-.19-.54-.35-.71-.59-1.39-1.97-3.41-2.02-5.53-1.96-2.34.08-4.68.07-7.02-.04-.72-.03-1.53-.39-2.1-.84-1.22-.98-2.31-2.12-3.45-3.2.04-.12.07-.24.11-.35Z"/>
      <path class="cls-1" d="M118.72,63.42c-3.2,0-6.41.01-9.61,0-1.38,0-1.57-.2-1.58-1.55-.02-4.37-.03-8.75-.02-13.12,0-1.31.19-1.5,1.49-1.53,1.24-.02,2.48,0,3.72,0,.79,0,1.26.36,1.22,1.18-.04.94.48,1.16,1.3,1.15,2.72-.02,5.44-.03,8.16,0,.4,0,.79.25,1.18.38-.19.34-.34.72-.6,1.01-.32.36-.79.59-1.07.96-1.7,2.21-4.01,2.68-6.61,2.41-.48-.05-.99-.12-1.44.02-.34.1-.82.48-.85.78-.1.99-.05,1.99-.03,2.99.02.79.62.8,1.19.8,2.89,0,5.79.06,8.68-.01,1.17-.03,2.06.33,2.85,1.14.55.57,1.19,1.05,1.72,1.64.39.42.67.94,1,1.42-.58.13-1.15.36-1.73.36-3,.04-5.99.02-8.99.02v-.06Z"/>
      <path class="cls-1" d="M207.24,63.44c-3.17,0-6.34.02-9.51,0-1.46-.01-1.63-.19-1.63-1.61-.02-4.37-.02-8.75-.02-13.12,0-1.31.21-1.5,1.5-1.51,1.17,0,2.34.01,3.51-.01.82-.02,1.35.28,1.35,1.17,0,.96.52,1.23,1.39,1.22,2.58-.03,5.17-.02,7.75-.02.34,0,.69,0,1.03.07.56.11.71.52.32.9-1.26,1.22-2.54,2.42-3.87,3.56-.27.23-.79.21-1.19.21-1.41.01-2.82,0-4.24-.03-.78-.02-1.17.4-1.17,1.12-.03,3.99-.41,3.55,3.17,3.55,2.45,0,4.89-.05,7.33.05.69.03,1.46.37,2.03.8.93.69,1.75,1.54,2.58,2.37.23.23.32.61.48.93-.33.13-.66.37-.99.38-3.27.03-6.54.02-9.82.02,0,0,0-.02,0-.03Z"/>
      <path class="cls-1" d="M176.37,40.52c.39-.07.77-.19,1.16-.19,2.86-.01,5.72-.04,8.58.04.59.02,1.29.31,1.74.7,2.01,1.73,3.93,3.56,5.91,5.32.64.57.95,1.2.94,2.07-.02,4.45-.01,8.89-.02,13.34,0,1.49-.18,1.64-1.68,1.65-.9,0-1.79.01-2.69.01-1.78,0-1.91-.11-1.93-1.85-.03-2.76-.01-5.51-.02-8.27,0-1.24.09-2.49-.04-3.72-.07-.66-.38-1.39-.81-1.89-.68-.81-1.49-1.56-2.36-2.14-.59-.39-1.41-.67-2.1-.61-1.81.15-3.2-.4-4.37-1.79-.72-.85-1.62-1.55-2.44-2.32.04-.12.08-.23.12-.35Z"/>
      <path class="cls-1" d="M17.99,25.86c-.12.68-.29,1.35-.36,2.03-.3,2.77.25,5.43,1.24,7.98.61,1.57.42,2.95-.39,4.33-1.6,2.72-3.9,4.7-6.71,6.08-.33.16-.9.22-1.14.03-.23-.17-.31-.74-.24-1.1.15-.77.44-1.51.67-2.27,1.25-4.06,1.17-8.13.05-12.21-.85-3.09-1.63-6.18-1.34-9.44.17-1.87.81-2.3,2.32-1.25,1.66,1.16,3.3,2.37,4.84,3.69.57.49.86,1.32,1.28,1.99-.08.05-.15.09-.23.14Z"/>
      <path class="cls-1" d="M24,23.36c-2.12-.23-3.69-1.02-5.14-2.01-2.24-1.53-4.41-3.15-6.59-4.77-.97-.72-.98-1.08-.25-2.04.71-.93.44-1.58-.75-1.77-.47-.08-.95-.13-1.42-.24-.84-.2-1.49-.5-1.12-1.62.07-.22-.33-.73-.63-.91C4.51,7.93,2.31,4.6.16,1.24-.04.92.05.42,0,0,.41.05.89-.03,1.2.17c3.27,2.09,6.51,4.23,9.77,6.34.95.62,1.91,1.22,2.89,1.79,2.99,1.73,5.15,4.29,7.1,7.06,1.3,1.85,2.68,3.66,3.92,5.55.29.44.34,1.23.16,1.74-.13.38-.82.57-1.05.71Z"/>
      <path class="cls-1" d="M69.48,63.46c-1.69,0-3.38.02-5.06-.02-.29,0-.58-.25-.87-.38.14-.26.25-.53.42-.77.11-.17.31-.27.44-.43,1.93-2.38,4.35-3.4,7.43-2.97,1.42.2,2.21-.98,2.96-1.93.15-.2-.13-.97-.43-1.25-2.61-2.45-5.26-4.85-7.89-7.28-.23-.21-.34-.54-.5-.81.33-.13.66-.37.99-.37,1.62-.05,3.24-.07,4.86-.01.48.02,1.04.22,1.39.53,3.02,2.66,6.01,5.36,9.01,8.05.6.54.56,1.08,0,1.58-2.07,1.86-4.14,3.74-6.27,5.53-.4.34-1.07.48-1.63.5-1.62.06-3.24.02-4.86.02,0,0,0,.01,0,.02Z"/>
      <path class="cls-1" d="M149.23,57.6c-.66.07-1.12.16-1.59.16-2.62,0-5.23-.01-7.85,0-1.37,0-1.52.19-1.51,1.57,0,.96,0,1.93.01,2.89.01.81-.34,1.22-1.17,1.22-1.34-.01-2.69,0-4.03,0-.86,0-1.24-.44-1.23-1.29,0-4.51,0-9.02,0-13.53,0-.96.44-1.39,1.38-1.39,1.31,0,2.62,0,3.92.02.76,0,1.14.39,1.13,1.16,0,1.14.03,2.27,0,3.41-.03.92.34,1.33,1.27,1.3,1.34-.04,2.69-.06,4.03-.02.46.01,1.03.07,1.36.34,1.35,1.12,2.62,2.32,3.91,3.51.12.11.17.29.37.66Z"/>
      <path class="cls-1" d="M98.58,55.36c0,2.2.01,4.4,0,6.61,0,1.29-.17,1.45-1.41,1.46-1.27.01-2.54,0-3.82-.02-.78-.01-1.19-.39-1.19-1.22,0-4.58,0-9.15-.03-13.73,0-.87.39-1.26,1.25-1.26,1.31,0,2.61.01,3.92,0,.91,0,1.3.43,1.29,1.34-.02,2.27,0,4.54,0,6.81Z"/>
    </g>
  </g>
</svg>